<svg width="145" height="47" viewBox="0 0 145 47" fill="none" xmlns="http://www.w3.org/2000/svg">
<path d="M13.8398 23.8874L6.09457 31.8073V42.9207H0V0H6.09457V24.0151L29.2032 0H36.1865L18.0298 19.2887L37.4562 42.9207H30.3459L13.8398 23.8874Z" fill="#FF6060"/>
<path d="M81.8958 39.4718L84.3082 34.8731C87.1015 36.7892 91.4185 38.1944 95.6085 38.1944C101.068 38.1944 103.227 36.5337 103.227 33.7235C103.227 26.4423 82.7845 32.7015 82.7845 19.7998C82.7845 13.9238 87.9903 10.0916 96.2434 10.0916C100.433 10.0916 105.258 11.2412 108.052 13.0296L105.512 17.6282C102.592 15.7121 99.4177 15.0734 96.2434 15.0734C91.1646 15.0734 88.6252 16.9895 88.6252 19.5443C88.6252 27.2087 109.067 20.9495 109.067 33.5957C109.067 39.4718 103.735 43.1762 95.1007 43.1762C89.8949 43.304 84.5621 41.6433 81.8958 39.4718Z" fill="#FF6060"/>
<path d="M145 23.2486V42.9206H139.413V38.5774C137.509 41.5154 133.827 43.176 128.748 43.176C121.384 43.176 116.813 39.2161 116.813 33.5955C116.813 28.3582 120.114 24.1428 129.764 24.1428H139.033V22.9931C139.033 18.0112 136.112 15.201 130.399 15.201C126.589 15.201 122.653 16.6061 120.114 18.6499L117.702 14.179C121.003 11.4965 125.828 9.96362 131.033 9.96362C140.048 10.0914 145 14.4345 145 23.2486ZM139.16 32.9568V28.3582H130.145C124.304 28.3582 122.653 30.6575 122.653 33.34C122.653 36.5336 125.32 38.5774 129.764 38.5774C134.208 38.7051 137.763 36.789 139.16 32.9568Z" fill="#FF6060"/>
<path d="M63.1042 34.3623V43.0486L66.7864 40.877V32.1907L63.1042 34.3623Z" fill="#FF6060"/>
<path d="M73.2618 23.7597L58.1524 14.9457L49.7724 10.0916L41.5193 24.5262L41.6463 38.0666L56.6287 46.8807L58.1524 45.9865V33.2125L64.8818 21.3327L71.7382 25.2926V38.0666L73.2618 37.1724V23.7597Z" fill="#FF6060"/>
</svg>
